<svg xmlns="http://www.w3.org/2000/svg" viewBox="0 0 240 240" role="img" aria-labelledby="title desc">
  <title id="title">Samuel Williams profile avatar</title>
  <desc id="desc">A circular illustrated profile avatar with warm skin tones, a suit jacket, and blue frost accents.</desc>
  <defs>
    <radialGradient id="bg" cx="50%" cy="35%" r="70%">
      <stop offset="0%" stop-color="#6ee7ff"/>
      <stop offset="58%" stop-color="#172b4d"/>
      <stop offset="100%" stop-color="#050a14"/>
    </radialGradient>
    <linearGradient id="suit" x1="0%" x2="100%" y1="0%" y2="100%">
      <stop offset="0%" stop-color="#152a4f"/>
      <stop offset="100%" stop-color="#050b18"/>
    </linearGradient>
    <filter id="glow" x="-30%" y="-30%" width="160%" height="160%">
      <feGaussianBlur stdDeviation="4" result="blur"/>
      <feMerge>
        <feMergeNode in="blur"/>
        <feMergeNode in="SourceGraphic"/>
      </feMerge>
    </filter>
  </defs>
  <circle cx="120" cy="120" r="112" fill="url(#bg)"/>
  <circle cx="120" cy="120" r="108" fill="none" stroke="#aeefff" stroke-width="5" opacity="0.9"/>
  <path d="M58 214c10-45 33-68 62-68s52 23 62 68" fill="url(#suit)"/>
  <path d="M84 214l36-62 36 62" fill="#edf8ff" opacity="0.9"/>
  <path d="M105 164l15-12 15 12-15 44z" fill="#43c7ff"/>
  <circle cx="120" cy="92" r="45" fill="#9f643c"/>
  <path d="M76 96c10-45 35-62 73-48 18 7 27 22 27 48-16-21-40-30-72-26-12 1-21 11-28 26z" fill="#24160f"/>
  <path d="M86 102c4 34 16 53 34 53s30-19 34-53c-10 8-22 12-34 12s-24-4-34-12z" fill="#b9774d"/>
  <path d="M97 95c8-5 16-5 24 0M128 95c8-5 16-5 24 0" fill="none" stroke="#2a160d" stroke-width="5" stroke-linecap="round"/>
  <path d="M103 121c11 8 23 8 34 0" fill="none" stroke="#64361f" stroke-width="5" stroke-linecap="round"/>
  <path d="M44 54l14 8M180 42l-18 22M38 154l24-7M192 170l-24-16" stroke="#7fd6ff" stroke-width="5" stroke-linecap="round" opacity="0.8" filter="url(#glow)"/>
</svg>
