<svg xmlns="http://www.w3.org/2000/svg" viewBox="0 0 900 1100" role="img" aria-labelledby="title desc">
  <title id="title">Frost warrior at an icy temple</title>
  <desc id="desc">A blue masked warrior walks through snow outside a frozen temple.</desc>
  <defs>
    <linearGradient id="sky" x1="0" x2="0" y1="0" y2="1">
      <stop offset="0" stop-color="#16364d"/>
      <stop offset="0.55" stop-color="#0c1e31"/>
      <stop offset="1" stop-color="#07101d"/>
    </linearGradient>
    <linearGradient id="blue" x1="0" x2="1">
      <stop offset="0" stop-color="#103b7d"/>
      <stop offset="0.55" stop-color="#1f80d0"/>
      <stop offset="1" stop-color="#061733"/>
    </linearGradient>
    <filter id="blur">
      <feGaussianBlur stdDeviation="3"/>
    </filter>
  </defs>
  <rect width="900" height="1100" fill="url(#sky)"/>
  <g opacity=".35" fill="#8ab8cb">
    <rect x="120" y="120" width="660" height="50"/>
    <rect x="170" y="170" width="560" height="360"/>
    <path d="M450 70 780 170H120z"/>
    <path d="M265 170h40v360h-40zm155 0h60v360h-60zm175 0h40v360h-40z"/>
  </g>
  <g opacity=".45">
    <rect x="68" y="550" width="120" height="20" fill="#6ca8bd"/>
    <rect x="712" y="550" width="120" height="20" fill="#6ca8bd"/>
    <circle cx="128" cy="550" r="38" fill="#ff9b42" filter="url(#blur)"/>
    <circle cx="772" cy="550" r="38" fill="#ff9b42" filter="url(#blur)"/>
  </g>
  <path d="M0 910c180-42 312-36 456-14 140 20 250 6 444-28v232H0z" fill="#d6edf6" opacity=".18"/>
  <path d="M380 256h140l43 95-26 136-33 72H396l-35-72-24-136z" fill="#131c29"/>
  <path d="M393 292h114l31 60-22 92H384l-22-92z" fill="#0a1019"/>
  <path d="M388 332h124v107H388z" fill="#0c4c90"/>
  <path d="M393 342h114v27H393zm0 42h114v25H393z" fill="#2491db"/>
  <path d="M396 244c28-44 78-45 108 0v82H396z" fill="#0a121e"/>
  <path d="M384 326c38 24 91 25 136 0l-17 81H401z" fill="#1671bd"/>
  <path d="M408 316h86l-14 46h-58z" fill="#0c1723"/>
  <path d="M419 318h18v44h-18zm36 0h16v44h-16z" fill="#58d9ff" opacity=".85"/>
  <path d="M338 355 205 505l26 29 127-129zm224 0 133 150-26 29-127-129z" fill="#111a28"/>
  <path d="M348 540h72l-16 332h-62zm132 0h72l22 332h-62z" fill="#111a28"/>
  <path d="M351 870h70l-15 62h-91zm155 0h70l42 62h-96z" fill="#0a1018"/>
  <path d="M322 410 215 732l39 15 127-292zm256 0 107 322-39 15-127-292z" fill="#172232"/>
  <path d="M410 520h82l35 318H378z" fill="url(#blue)"/>
  <path d="M436 520h29v318h-29z" fill="#6fd8ff" opacity=".3"/>
  <path d="M321 250 228 690M579 250l93 440" stroke="#09111d" stroke-width="18" stroke-linecap="round"/>
  <g fill="#dbefff" opacity=".82">
    <circle cx="64" cy="58" r="4"/><circle cx="206" cy="134" r="3"/><circle cx="742" cy="102" r="4"/>
    <circle cx="817" cy="292" r="3"/><circle cx="94" cy="338" r="4"/><circle cx="340" cy="176" r="3"/>
    <circle cx="620" cy="244" r="4"/><circle cx="298" cy="694" r="3"/><circle cx="768" cy="720" r="4"/>
    <circle cx="134" cy="838" r="3"/><circle cx="496" cy="928" r="4"/>
  </g>
</svg>
